<svg width="134" height="32" viewBox="0 0 134 32" fill="none" xmlns="http://www.w3.org/2000/svg">
<rect width="32" height="32" fill="#FF0032"/>
<path d="M21.3186 2.43848V3.93137H24.5347V9.77206L24.5354 9.86822H26.3359V3.93137H29.552V2.43848H21.3186Z" fill="white"/>
<path d="M9.73604 2.46072L7.38383 7.34453L5.03159 2.46072H2.46338V9.84534H4.26388V4.56033L6.5631 9.02526H8.2046L10.5044 4.56033V9.84534H12.3049V2.46072H9.73604Z" fill="white"/>
<path d="M27.747 27.0755C27.7134 27.3482 27.5891 27.6017 27.3942 27.7954C27.1917 27.9796 26.9428 28.1052 26.6743 28.1586C26.2819 28.2363 25.8824 28.2725 25.4824 28.2666C25.0565 28.2742 24.6323 28.2121 24.2265 28.0827C23.8938 27.9746 23.6069 27.7583 23.4116 27.4681C23.2153 27.1775 23.1184 26.758 23.1184 26.2246V25.468C23.1184 24.9307 23.2173 24.5111 23.4116 24.2206C23.6065 23.931 23.8926 23.7149 24.2245 23.6067C24.6303 23.4772 25.0546 23.4151 25.4805 23.4227C25.8805 23.4168 26.2799 23.453 26.6723 23.5307C26.9408 23.5842 27.1897 23.7098 27.3923 23.8939C27.5872 24.0876 27.7114 24.3411 27.745 24.6139H29.5468C29.5142 24.0458 29.2976 23.5039 28.9296 23.0699C28.5667 22.6709 28.097 22.3842 27.5762 22.244C26.893 22.0637 26.1881 21.9794 25.4818 21.9933C24.6185 21.9933 23.8698 22.1177 23.2565 22.3624C22.6498 22.596 22.1416 23.0305 21.8166 23.5935C21.4992 24.1387 21.3323 24.8665 21.3212 25.7586V25.8404L21.4174 25.8443H21.3212V25.9261C21.3323 26.8182 21.4992 27.546 21.8166 28.0912C22.1416 28.6542 22.6498 29.0887 23.2565 29.3223C23.8704 29.5671 24.6198 29.6914 25.4818 29.6914C26.1882 29.7056 26.8931 29.6213 27.5762 29.4407C28.0972 29.301 28.5671 29.0143 28.9296 28.6147C29.2977 28.1809 29.5144 27.6389 29.5468 27.0708L27.747 27.0755Z" fill="white"/>
<path d="M40.272 12.208V10.27H52.24V12.208H47.446V22H45.066V12.208H40.272ZM63.9076 10.27V12.123H56.2236V15.115H62.1396V16.9H56.2236V20.147H63.9756V22H53.8436V10.27H63.9076ZM68.2055 12.565V22H66.0125V10.27H69.2595L75.7365 19.688V10.27H77.9295V22H74.6995L68.2055 12.565ZM87.0147 20.062C87.6154 20.062 88.1424 19.9997 88.5957 19.875C89.0604 19.7503 89.4514 19.552 89.7687 19.28C90.086 18.9967 90.324 18.6397 90.4827 18.209C90.6414 17.767 90.7207 17.2343 90.7207 16.611V15.574C90.7207 14.3613 90.4034 13.5 89.7687 12.99C89.134 12.4687 88.216 12.208 87.0147 12.208H82.9687V20.062H87.0147ZM87.1507 10.27C88.1254 10.27 88.9867 10.3777 89.7347 10.593C90.4827 10.797 91.106 11.137 91.6047 11.613C92.1147 12.0777 92.4944 12.684 92.7437 13.432C93.0044 14.1687 93.1347 15.0697 93.1347 16.135C93.1347 17.189 93.0044 18.09 92.7437 18.838C92.4944 19.5747 92.1147 20.181 91.6047 20.657C91.106 21.1217 90.4827 21.4617 89.7347 21.677C88.9867 21.8923 88.1254 22 87.1507 22H80.5887V10.27H87.1507ZM105.312 10.27V12.123H97.6279V15.115H103.544V16.9H97.6279V20.147H105.38V22H95.2479V10.27H105.312ZM114.778 10.27C116.092 10.27 117.09 10.5873 117.77 11.222C118.461 11.8453 118.807 12.7407 118.807 13.908C118.807 14.8373 118.597 15.5967 118.178 16.186C117.77 16.764 117.163 17.1663 116.359 17.393L119.232 22H116.58L113.843 17.597H109.797V22H107.417V10.27H114.778ZM116.41 13.721C116.41 13.211 116.262 12.8087 115.968 12.514C115.673 12.208 115.169 12.055 114.455 12.055H109.797V15.795H114.455C115.157 15.795 115.656 15.6477 115.951 15.353C116.257 15.047 116.41 14.6447 116.41 14.146V13.721ZM122.831 18.583C122.911 18.957 123.041 19.263 123.222 19.501C123.404 19.739 123.642 19.926 123.936 20.062C124.231 20.198 124.588 20.2943 125.007 20.351C125.438 20.4077 125.942 20.436 126.52 20.436C127.71 20.436 128.577 20.3 129.121 20.028C129.665 19.756 129.937 19.314 129.937 18.702C129.937 18.294 129.801 17.9823 129.529 17.767C129.269 17.5517 128.917 17.3873 128.475 17.274C128.045 17.1607 127.546 17.0813 126.979 17.036C126.424 16.9907 125.857 16.9453 125.279 16.9C124.701 16.8433 124.129 16.764 123.562 16.662C123.007 16.5487 122.508 16.373 122.066 16.135C121.636 15.897 121.284 15.5797 121.012 15.183C120.752 14.775 120.621 14.2423 120.621 13.585C120.621 12.3497 121.114 11.4543 122.1 10.899C123.098 10.3437 124.503 10.066 126.316 10.066C128.118 10.066 129.501 10.3323 130.464 10.865C131.428 11.3977 131.972 12.2817 132.096 13.517H129.665C129.62 13.1883 129.507 12.9163 129.325 12.701C129.155 12.4857 128.929 12.3157 128.645 12.191C128.362 12.055 128.022 11.9643 127.625 11.919C127.24 11.8623 126.804 11.834 126.316 11.834C125.183 11.834 124.339 11.9587 123.783 12.208C123.228 12.446 122.95 12.888 122.95 13.534C122.95 13.9193 123.081 14.214 123.341 14.418C123.613 14.622 123.965 14.7807 124.395 14.894C124.837 14.996 125.336 15.0697 125.891 15.115C126.458 15.1603 127.03 15.2113 127.608 15.268C128.198 15.3133 128.77 15.3927 129.325 15.506C129.892 15.6193 130.391 15.795 130.821 16.033C131.263 16.2597 131.615 16.577 131.875 16.985C132.147 17.393 132.283 17.92 132.283 18.566C132.283 19.8467 131.819 20.776 130.889 21.354C129.96 21.9207 128.504 22.204 126.52 22.204C125.512 22.204 124.639 22.136 123.902 22C123.177 21.864 122.565 21.6543 122.066 21.371C121.579 21.0763 121.199 20.7023 120.927 20.249C120.655 19.7843 120.48 19.229 120.4 18.583H122.831Z" fill="black"/>
</svg>
